# Blender v2.92.0 OBJ File: ''
# www.blender.org
mtllib SM_Floor_02.mtl
o SM_Floor_02
v -0.894667 0.000000 -1.797532
v -1.494747 0.000000 -1.863940
v -1.494747 0.000000 -1.797532
v -0.894667 0.000000 -0.895506
v -0.599980 0.000000 -0.895506
v -0.599980 0.000000 -1.797532
v -0.894667 0.000000 -2.095265
v -0.604483 -0.011300 -2.095265
v -0.599980 0.000000 -2.095265
v -0.899169 -0.011300 -2.095265
v -0.899169 -0.011300 -1.797532
v -0.604483 -0.011300 -1.797532
v -2.691205 0.000000 -0.895506
v -2.396818 -0.011300 -0.895506
v -2.392215 0.000000 -0.895506
v -2.695807 -0.011300 -0.895506
v -2.691205 0.000000 -0.297231
v -2.392215 0.000000 -0.297231
v -2.396818 -0.011300 -0.297231
v -2.695807 -0.011300 -0.297231
v -0.604483 -0.011300 -0.895506
v -0.899169 -0.011300 -0.895506
v -0.894667 0.000000 -0.594362
v -0.899169 -0.011300 -0.594362
v -0.599980 0.000000 -0.594362
v -0.604483 -0.011300 -0.594362
v -1.619526 0.000000 -1.943590
v -1.792735 0.000000 -1.797532
v -1.792735 0.000000 -2.095265
v -1.499349 -0.008800 -2.095265
v -1.494747 0.000000 -2.095265
v -1.797338 -0.008800 -2.095265
v -1.663253 0.000000 -2.041196
v -1.667856 -0.008800 -2.041196
v -1.624129 -0.008800 -1.943590
v -1.499349 -0.008800 -1.863940
v 0.000000 0.000000 0.000000
v 0.000000 0.000000 -3.000000
v -3.000000 0.000000 -3.000000
v -3.000000 0.000000 0.000000
v -0.899169 -0.011300 -1.797532
v -0.604483 -0.011300 -2.095265
v -0.899169 -0.011300 -2.095265
v -0.604483 -0.011300 -1.797532
v -0.899169 -0.011300 -0.895506
v -0.604483 -0.011300 -0.594362
v -0.604483 -0.011300 -0.895506
v -0.899169 -0.011300 -0.594362
v -2.695807 -0.011300 -0.895506
v -2.695807 -0.011300 -0.297231
v -2.396818 -0.011300 -0.895506
v -2.396818 -0.011300 -0.297231
v -1.624129 -0.008800 -1.943590
v -1.499349 -0.008800 -2.095265
v -1.667856 -0.008800 -2.041196
v -1.797338 -0.008800 -2.095265
v -1.499349 -0.008800 -1.863940
vt 1.001600 0.855600
vt 0.715100 0.887200
vt 0.715100 0.855600
vt 1.001600 0.426200
vt 1.142300 0.426200
vt 1.142300 0.855600
vt 1.001600 0.997300
vt 1.142300 0.997300
vt 1.142300 0.997300
vt 1.001600 0.997300
vt 1.001600 0.855600
vt 1.142300 0.855600
vt 0.143800 0.426200
vt 0.286600 0.426200
vt 0.286600 0.426200
vt 0.143800 0.426200
vt 0.143800 0.141500
vt 0.286600 0.141500
vt 0.286600 0.141500
vt 0.143800 0.141500
vt 1.142300 0.426200
vt 1.001600 0.426200
vt 1.001600 0.282900
vt 1.001600 0.282900
vt 1.142300 0.282900
vt 1.142300 0.282900
vt 0.655500 0.925100
vt 0.572800 0.855600
vt 0.572800 0.997300
vt 0.715100 0.997300
vt 0.715100 0.997300
vt 0.572800 0.997300
vt 0.634700 0.971600
vt 0.634700 0.971600
vt 0.655500 0.925100
vt 0.715100 0.887200
vt 1.428800 0.000000
vt 1.428800 1.428000
vt -0.000000 1.428000
vt -0.000000 0.000000
vt 0.122400 0.838100
vt 0.263100 0.979800
vt 0.122400 0.979800
vt 0.263100 0.838100
vt 0.368000 0.974400
vt 0.508700 0.831100
vt 0.508700 0.974400
vt 0.368000 0.831100
vt 0.196500 0.974400
vt 0.196500 0.689600
vt 0.339200 0.974400
vt 0.339200 0.689600
vt 0.655500 0.925100
vt 0.715100 0.997300
vt 0.634700 0.971600
vt 0.572800 0.997300
vt 0.715100 0.887200
vn 0.0000 1.0000 0.0000
vn 0.0000 0.0000 1.0000
vn 0.9266 -0.3760 -0.0000
vn 0.0000 0.0000 -1.0000
vn -0.9266 0.3759 -0.0000
vn -0.9266 0.3760 0.0000
vn -0.9266 0.3761 0.0000
vn 0.3777 -0.1970 -0.9047
vn 0.3777 -0.1971 -0.9047
vn 0.8240 -0.4299 -0.3691
vn 0.8241 -0.4298 -0.3691
vn 0.8240 -0.4298 -0.3691
vn 0.5180 -0.2703 -0.8115
vn 0.5180 -0.2702 -0.8116
vn 0.5180 -0.2703 -0.8116
vn -0.8865 0.4626 0.0000
vn -0.8866 0.4625 0.0000
vn 0.9266 -0.3761 -0.0000
usemtl Material__2
s 1
f 1/1/1 2/2/1 3/3/1
f 4/4/1 1/1/1 3/3/1
f 1/1/1 5/5/1 6/6/1
f 5/5/1 1/1/1 4/4/1
f 7/7/2 8/8/2 9/9/2
f 8/8/2 7/7/2 10/10/2
f 7/7/3 1/1/3 11/11/3
f 7/7/3 11/11/3 10/10/3
f 1/1/4 6/6/4 12/12/4
f 1/1/4 12/12/4 11/11/4
f 9/9/5 12/12/5 6/6/5
f 12/12/6 9/9/6 8/8/6
f 13/13/2 14/14/2 15/15/2
f 14/14/2 13/13/2 16/16/2
f 17/17/4 18/18/4 19/19/4
f 17/17/4 19/19/4 20/20/4
f 15/15/7 19/19/7 18/18/7
f 19/19/7 15/15/7 14/14/7
f 4/4/2 21/21/2 5/5/2
f 21/21/2 4/4/2 22/22/2
f 4/4/3 23/23/3 24/24/3
f 4/4/3 24/24/3 22/22/3
f 23/23/4 25/25/4 26/26/4
f 23/23/4 26/26/4 24/24/4
f 5/5/6 26/26/6 25/25/6
f 26/26/6 5/5/6 21/21/6
f 27/27/1 28/28/1 2/2/1
f 29/29/2 30/30/2 31/31/2
f 30/30/2 29/29/2 32/32/2
f 29/29/8 33/33/9 34/34/8
f 29/29/8 34/34/8 32/32/8
f 33/33/10 27/27/10 35/35/11
f 33/33/10 35/35/11 34/34/12
f 27/27/13 2/2/14 36/36/13
f 27/27/13 36/36/13 35/35/15
f 31/31/16 36/36/16 2/2/16
f 36/36/17 31/31/17 30/30/17
f 33/33/1 29/29/1 28/28/1
f 27/27/1 33/33/1 28/28/1
f 28/28/1 3/3/1 2/2/1
f 37/37/1 6/6/1 5/5/1
f 37/37/1 25/25/1 23/23/1
f 37/37/1 38/38/1 6/6/1
f 5/5/1 25/25/1 37/37/1
f 7/7/1 9/9/1 38/38/1
f 31/31/1 7/7/1 38/38/1
f 38/38/1 29/29/1 31/31/1
f 29/29/1 38/38/1 39/39/1
f 40/40/1 18/18/1 17/17/1
f 13/13/18 17/17/18 20/20/18
f 13/13/18 20/20/18 16/16/18
f 39/39/1 40/40/1 17/17/1
f 39/39/1 17/17/1 13/13/1
f 37/37/1 18/18/1 40/40/1
f 18/18/1 37/37/1 23/23/1
f 29/29/1 13/13/1 28/28/1
f 13/13/1 29/29/1 39/39/1
f 28/28/1 13/13/1 15/15/1
f 3/3/1 28/28/1 15/15/1
f 23/23/1 4/4/1 15/15/1
f 23/23/1 15/15/1 18/18/1
f 38/38/1 9/9/1 6/6/1
f 4/4/1 3/3/1 15/15/1
f 7/7/1 31/31/1 2/2/1
f 1/1/1 7/7/1 2/2/1
usemtl Material__55
f 41/41/1 42/42/1 43/43/1
f 42/42/1 41/41/1 44/44/1
f 45/45/1 46/46/1 47/47/1
f 46/46/1 45/45/1 48/48/1
f 49/49/1 50/50/1 51/51/1
f 51/51/1 50/50/1 52/52/1
f 53/53/1 54/54/1 55/55/1
f 54/54/1 56/56/1 55/55/1
f 53/53/1 57/57/1 54/54/1
