# Blender v2.92.0 OBJ File: ''
# www.blender.org
mtllib SM_Wall_01.mtl
o SM_Wall_01
v -3.006006 1.126847 -0.007200
v -0.006005 1.126847 -0.007200
v -0.006005 0.007689 -0.007200
v -3.006006 0.007689 -0.007200
v -0.006005 1.126847 0.000000
v -0.006005 0.007689 0.000000
v -3.006006 1.126847 0.000000
v -3.006006 0.007689 0.000000
v -0.006005 -0.001698 -0.007200
v -3.006006 -0.001698 -0.007200
v -3.006006 -0.001698 -0.000000
v -0.006005 -0.001698 -0.000000
v -0.006005 2.998302 0.000000
v -3.006006 1.126847 0.000000
v -3.006006 2.998302 0.000000
v -0.006005 1.126847 0.000000
vt 0.000000 0.751300
vt 1.999800 0.751300
vt 1.999800 0.000000
vt 0.000000 0.000000
vt 1.999800 0.751300
vt 1.999800 0.000000
vt 1.992100 0.751300
vt 1.992100 0.000000
vt 0.000000 0.744100
vt 1.999800 0.744100
vt 0.000000 0.751300
vt 0.009100 0.000000
vt 0.009100 0.751300
vt 1.999800 0.000000
vt 0.000000 0.000000
vt 0.009100 0.000000
vt 1.992100 0.000000
vt 1.999800 0.000000
vt 0.000100 0.000000
vt 1.000000 0.999800
vt 1.000000 0.000000
vt 0.000100 0.999800
vn 0.0000 0.0000 -1.0000
vn 1.0000 -0.0000 0.0000
vn 0.0000 1.0000 0.0000
vn -1.0000 0.0000 0.0000
vn -1.0000 -0.0001 0.0000
usemtl Material__7
s 1
f 1/1/1 2/2/1 3/3/1
f 1/1/1 3/3/1 4/4/1
f 5/5/2 6/6/2 2/7/2
f 2/7/2 6/6/2 3/8/2
f 1/9/3 5/5/3 2/10/3
f 5/5/3 1/9/3 7/11/3
f 1/1/4 8/12/4 7/13/4
f 8/12/4 1/1/4 4/4/4
f 9/14/1 10/15/1 3/3/1
f 4/4/1 3/3/1 10/15/1
f 8/12/4 10/15/4 11/16/5
f 10/15/4 8/12/4 4/4/4
f 3/8/2 6/6/2 9/17/2
f 6/6/2 12/18/2 9/17/2
usemtl 01___Default
f 13/19/1 14/20/1 15/21/1
f 14/20/1 13/19/1 16/22/1
