# Blender v2.92.0 OBJ File: ''
# www.blender.org
mtllib SM_Wall_02 - 복사본.mtl
o Wall_01.002_Wall_01.002_Wall_01.002_Material__7.004_Wall_01.002
v -3.006005 1.128300 -0.007200
v -0.006005 1.128300 -0.007200
v -0.006005 0.007699 -0.007200
v -3.006005 0.007699 -0.007200
v -0.006005 1.128300 0.000000
v -0.006005 0.007699 0.000000
v -3.006005 1.128300 0.000000
v -3.006005 0.007699 0.000000
v -0.006005 -0.001700 -0.007200
v -3.006005 -0.001700 -0.007200
v -3.006005 -0.001700 -0.000000
v -0.006005 -0.001700 -0.000000
vt 0.000000 0.751300
vt 1.999800 0.751300
vt 1.999800 0.000000
vt 0.000000 0.000000
vt 1.999800 0.751300
vt 1.999800 0.000000
vt 1.992100 0.751300
vt 1.992100 0.000000
vt 0.000000 0.744100
vt 1.999800 0.744100
vt 0.000000 0.751300
vt 0.009100 0.000000
vt 0.009100 0.751300
vt 1.999800 0.000000
vt 0.000000 0.000000
vt 0.009100 0.000000
vt 1.992100 0.000000
vt 1.999800 0.000000
vn 0.0000 0.0000 -1.0000
vn 1.0000 0.0000 0.0000
vn 0.0000 1.0000 0.0000
vn -1.0000 -0.0000 0.0000
vn -1.0000 -0.0001 0.0000
g Wall_01.002_Wall_01.002_Wall_01.002_Material__7.004_Wall_01.002_Wall_01.002_Wall_01.002_Wall_01.002_Material__7.004_Wall_01.002_Material__7.006
usemtl Material__7.006
s 1
f 1/1/1 2/2/1 3/3/1
f 1/1/1 3/3/1 4/4/1
f 5/5/2 6/6/2 2/7/2
f 2/7/2 6/6/2 3/8/2
f 1/9/3 5/5/3 2/10/3
f 5/5/3 1/9/3 7/11/3
f 1/1/4 8/12/4 7/13/4
f 8/12/4 1/1/4 4/4/4
f 9/14/1 10/15/1 3/3/1
f 4/4/1 3/3/1 10/15/1
f 8/12/4 10/15/4 11/16/5
f 10/15/4 8/12/4 4/4/4
f 3/8/2 6/6/2 9/17/2
f 6/6/2 12/18/2 9/17/2
o Object001.002_Object001.002_Object001.002_01___Default.003_Obje
v -0.006005 2.995971 0.000000
v -3.006005 1.125971 0.000000
v -3.006005 2.995971 0.000000
v -0.006005 1.125971 0.000000
vt 0.000100 0.000000
vt 1.000000 0.999800
vt 1.000000 0.000000
vt 0.000100 0.999800
vn 0.0000 0.0000 -1.0000
g Object001.002_Object001.002_Object001.002_01___Default.003_Obje_Object001.002_Object001.002_Object001.002_01___Default.003_Obje_01___Default.005
usemtl 01___Default.005
s 1
f 13/19/6 14/20/6 15/21/6
f 14/20/6 13/19/6 16/22/6
