# Blender v2.92.0 OBJ File: ''
# www.blender.org
mtllib SM_Wall_02 - 복사본 - 복사본.mtl
o Wall_02.001
v 0.250183 0.248883 -0.000084
v 0.373475 0.248883 -0.000084
v 0.373475 0.373974 -0.000084
v 0.250183 0.373974 -0.000084
v 0.373475 0.872039 -0.000084
v 0.499167 0.872039 -0.000084
v 0.499167 0.997932 -0.000084
v 0.373475 0.997932 -0.000084
v 0.499167 0.373974 -0.000928
v 0.623258 0.373974 -0.000928
v 0.623258 0.498966 -0.000928
v 0.499167 0.498966 -0.000928
v 0.749750 0.622657 -0.000928
v 0.873842 0.622657 -0.000928
v 0.873842 0.872039 -0.000928
v 0.749750 0.872039 -0.000928
v 0.873842 0.498966 -0.000928
v 0.999033 0.498966 -0.000928
v 0.999033 0.622657 -0.000928
v 0.999033 0.124892 -0.000084
v 0.873842 0.124892 -0.000084
v 0.873842 0.002402 -0.000084
v 0.999033 0.002402 -0.000084
v 1.120325 0.498966 -0.000084
v 1.245717 0.498966 -0.000084
v 1.245717 0.622657 -0.000084
v 1.120325 0.622657 -0.000084
v 1.369609 0.124892 -0.000928
v 1.494000 0.124892 -0.000928
v 1.494000 0.248883 -0.000928
v 1.369609 0.248883 -0.000928
v 1.494000 0.872039 -0.000084
v 1.619192 0.872039 -0.000084
v 1.619192 0.997932 -0.000084
v 1.494000 0.997932 -0.000084
v 1.994867 0.622657 -0.000084
v 2.120159 0.622657 -0.000084
v 2.120159 0.872039 -0.000084
v 1.994867 0.872039 -0.000084
v 2.492034 0.248883 -0.000084
v 2.492034 0.373974 -0.000084
v 2.245850 0.373974 -0.000084
v 2.245850 0.124892 -0.000084
v 2.369142 0.997932 -0.000084
v 2.616925 0.997932 -0.000084
v 2.616925 1.125125 0.000000
v 2.369142 1.125125 0.000000
v 2.369142 0.622657 -0.000928
v 2.492034 0.622657 -0.000928
v 2.492034 0.872039 -0.000928
v 2.369142 0.872039 -0.000928
v 2.742917 0.872039 -0.000084
v 2.866909 0.872039 -0.000084
v 2.866909 0.997932 -0.000084
v 2.742917 0.997932 -0.000084
v 0.623258 0.498966 0.006072
v 0.499167 0.498966 0.006072
v 0.623258 0.373974 0.006072
v 0.499167 0.373974 0.006072
v 0.873842 0.872039 0.006072
v 0.749750 0.872039 0.006072
v 0.873842 0.622657 0.006072
v 0.749750 0.622657 0.006072
v 0.999033 0.622657 0.006072
v 0.999033 0.498966 0.006072
v 0.873842 0.498966 0.006072
v 1.494000 0.248883 0.006072
v 1.369609 0.248883 0.006072
v 1.494000 0.124892 0.006072
v 1.369609 0.124892 0.006072
v 2.492034 0.872039 0.006072
v 2.369142 0.872039 0.006072
v 2.492034 0.622657 0.006072
v 2.369142 0.622657 0.006072
v 2.616925 0.124892 -0.000084
v 2.616925 0.248883 -0.000084
v 3.000000 3.002402 0.000000
v 0.000000 3.002402 0.000000
v 0.000000 1.125125 0.000000
v 3.000000 1.125125 0.000000
vt 1.832600 0.164900
vt 1.750200 0.164900
vt 1.750200 0.248600
vt 1.832600 0.248600
vt 1.750200 0.581900
vt 1.666200 0.581900
vt 1.666200 0.666200
vt 1.750200 0.666200
vt 1.666200 0.248600
vt 1.583300 0.248600
vt 1.583300 0.332300
vt 1.666200 0.332300
vt 1.498800 0.415000
vt 1.415800 0.415000
vt 1.415800 0.581900
vt 1.498800 0.581900
vt 1.415800 0.332300
vt 1.332200 0.332300
vt 1.332200 0.415000
vt 1.332200 0.082000
vt 1.415800 0.082000
vt 1.415800 0.000000
vt 1.332200 0.000000
vt 1.251100 0.332300
vt 1.167300 0.332300
vt 1.167300 0.415000
vt 1.251100 0.415000
vt 1.084500 0.082000
vt 1.001400 0.082000
vt 1.001400 0.164900
vt 1.084500 0.164900
vt 1.001400 0.581900
vt 0.917800 0.581900
vt 0.917800 0.666200
vt 1.001400 0.666200
vt 0.666700 0.415000
vt 0.583000 0.415000
vt 0.583000 0.581900
vt 0.666700 0.581900
vt 0.334500 0.164900
vt 0.334500 0.248600
vt 0.499000 0.248600
vt 0.499000 0.082000
vt 0.416600 0.666200
vt 0.251000 0.666200
vt 0.251000 0.751300
vt 0.416600 0.751300
vt 0.416600 0.415000
vt 0.334500 0.415000
vt 0.334500 0.581900
vt 0.416600 0.581900
vt 0.166800 0.581900
vt 0.083900 0.581900
vt 0.083900 0.666200
vt 0.166800 0.666200
vt 1.583300 0.332300
vt 1.666200 0.332300
vt 1.583300 0.248600
vt 1.666200 0.248600
vt 1.415800 0.581900
vt 1.498800 0.581900
vt 1.415800 0.415000
vt 1.498800 0.415000
vt 1.332200 0.415000
vt 1.332200 0.332300
vt 1.415800 0.332300
vt 1.001400 0.164900
vt 1.084500 0.164900
vt 1.001400 0.082000
vt 1.084500 0.082000
vt 0.334500 0.581900
vt 0.416600 0.581900
vt 0.334500 0.415000
vt 0.416600 0.415000
vt 0.251000 0.082000
vt 0.251000 0.164900
vt 1.000000 0.000000
vt 0.000100 0.000000
vt 0.000100 0.999800
vt 1.000000 0.999800
vn 0.0000 -0.0000 1.0000
vn 0.0000 -0.0007 1.0000
vn 0.0000 -1.0000 0.0000
vn -1.0000 0.0000 0.0000
vn 0.0000 1.0000 0.0000
vn 1.0000 0.0000 0.0000
g Wall_02.001_Wall_02.001_Material__55.001
usemtl Material__55.001
s 1
f 1/1/1 2/2/1 3/3/1 4/4/1
f 5/5/1 6/6/1 7/7/1 8/8/1
f 9/9/1 10/10/1 11/11/1 12/12/1
f 13/13/1 14/14/1 15/15/1 16/16/1
f 17/17/1 18/18/1 19/19/1 14/14/1
f 20/20/1 21/21/1 22/22/1 23/23/1
f 24/24/1 25/25/1 26/26/1 27/27/1
f 28/28/1 29/29/1 30/30/1 31/31/1
f 32/32/1 33/33/1 34/34/1 35/35/1
f 36/36/1 37/37/1 38/38/1 39/39/1
f 40/40/1 41/41/1 42/42/1 43/43/1
f 44/44/2 45/45/2 46/46/2 47/47/2
f 48/48/1 49/49/1 50/50/1 51/51/1
f 52/52/1 53/53/1 54/54/1 55/55/1
f 11/11/3 56/56/3 57/57/3 12/12/3
f 10/10/4 58/58/4 56/56/4 11/11/4
f 9/9/5 59/59/5 58/58/5 10/10/5
f 12/12/6 57/57/6 59/59/6 9/9/6
f 15/15/3 60/60/3 61/61/3 16/16/3
f 14/14/4 62/62/4 60/60/4 15/15/4
f 13/13/5 63/63/5 62/62/5 14/14/5
f 16/16/6 61/61/6 63/63/6 13/13/6
f 19/19/3 64/64/3 62/62/3 14/14/3
f 18/18/4 65/65/4 64/64/4 19/19/4
f 17/17/5 66/66/5 65/65/5 18/18/5
f 14/14/6 62/62/6 66/66/6 17/17/6
f 30/30/3 67/67/3 68/68/3 31/31/3
f 29/29/4 69/69/4 67/67/4 30/30/4
f 28/28/5 70/70/5 69/69/5 29/29/5
f 31/31/6 68/68/6 70/70/6 28/28/6
f 50/50/3 71/71/3 72/72/3 51/51/3
f 49/49/4 73/73/4 71/71/4 50/50/4
f 48/48/5 74/74/5 73/73/5 49/49/5
f 51/51/6 72/72/6 74/74/6 48/48/6
f 43/43/1 75/75/1 76/76/1 40/40/1
f 77/77/1 78/78/1 79/79/1 80/80/1
o Tile02.001
v 3.000000 0.002397 0.007890
v 3.000000 1.123008 0.007891
v 2.866909 0.870399 0.007891
v 0.000000 1.123008 0.000000
v 0.000000 0.002397 0.000000
v 0.000000 0.002397 0.007890
v 0.000000 1.123008 0.007891
v 2.369142 1.123008 0.000000
v 2.369142 1.123008 0.007891
v 3.000000 0.002397 0.000000
v 3.000000 1.123008 0.000000
v 0.873842 0.002397 0.007890
v 0.000000 -0.006992 0.007890
v 0.873842 -0.006992 0.007890
v 3.000000 -0.006992 0.007890
v 3.000000 -0.006992 -0.000000
v 0.000000 -0.006992 -0.000000
v 0.373475 0.373271 0.007890
v 0.499167 0.373271 0.007890
v 0.499167 0.498027 0.007890
v 0.499167 0.870399 0.007891
v 0.373475 0.870399 0.007891
v 0.749750 0.870399 0.007891
v 0.873842 0.870399 0.007891
v 0.499167 0.996054 0.007891
v 0.623258 0.498027 0.007890
v 0.873842 0.124657 0.007890
v 0.623258 0.373271 0.007890
v 0.373475 0.248414 0.007890
v 0.999033 0.002397 0.007890
v 0.999033 -0.006992 0.007890
v 0.873842 0.621485 0.007891
v 0.999033 0.621485 0.007891
v 0.999033 0.498027 0.007890
v 0.873842 0.498027 0.007890
v 0.999033 0.124657 0.007890
v 1.494000 0.002397 0.007890
v 1.494000 -0.006992 0.007890
v 1.120325 0.621485 0.007891
v 1.120325 0.498027 0.007890
v 1.494000 0.124657 0.007890
v 1.369609 0.124657 0.007890
v 1.619192 0.870399 0.007891
v 1.494000 0.870399 0.007891
v 1.494000 0.248414 0.007890
v 1.994867 0.621485 0.007891
v 2.245850 0.124657 0.007890
v 2.245850 0.373271 0.007890
v 1.619192 0.996054 0.007891
v 1.994867 0.870399 0.007891
v 2.369142 0.870399 0.007891
v 2.120159 0.870399 0.007891
v 2.120159 0.621485 0.007891
v 2.369142 0.621485 0.007891
v 2.369142 0.996054 0.007891
v 2.492034 0.870399 0.007891
v 2.492034 0.621485 0.007891
v 2.742917 0.870399 0.007891
v 2.616925 1.123008 0.000000
v 2.616925 1.123008 0.007891
v 2.616925 0.996054 0.007891
v 2.742917 0.996054 0.007891
v 0.250183 0.373271 0.007890
v 0.250183 0.373271 -0.000110
v 0.373475 0.373271 -0.000110
v 0.373475 0.248414 -0.000110
v 0.250183 0.248414 -0.000110
v 0.250183 0.248414 0.007890
v 0.373475 0.996054 0.007891
v 0.373475 0.996054 -0.000109
v 0.499167 0.996054 -0.000109
v 0.499167 0.870399 -0.000109
v 0.373475 0.870399 -0.000109
v 0.873842 0.124657 -0.000110
v 0.999033 0.124657 -0.000110
v 0.999033 0.002397 -0.000110
v 0.873842 0.002397 -0.000110
v 1.120325 0.621485 -0.000109
v 1.245717 0.621485 -0.000109
v 1.245717 0.621485 0.007891
v 1.245717 0.498027 -0.000110
v 1.245717 0.498027 0.007890
v 1.120325 0.498027 -0.000110
v 1.494000 0.996054 0.007891
v 1.494000 0.996054 -0.000109
v 1.619192 0.996054 -0.000109
v 1.619192 0.870399 -0.000109
v 1.494000 0.870399 -0.000109
v 1.994867 0.870399 -0.000109
v 2.120159 0.870399 -0.000109
v 2.120159 0.621485 -0.000109
v 1.994867 0.621485 -0.000109
v 2.245850 0.373271 -0.000110
v 2.492034 0.373271 -0.000110
v 2.492034 0.373271 0.007890
v 2.492034 0.248414 -0.000110
v 2.492034 0.248414 0.007890
v 2.616925 0.248414 -0.000110
v 2.616925 0.248414 0.007890
v 2.616925 0.124657 -0.000110
v 2.616925 0.124657 0.007890
v 2.245850 0.124657 -0.000110
v 2.616925 0.996054 -0.000109
v 2.369142 0.996054 -0.000109
v 2.742917 0.996054 -0.000109
v 2.866909 0.996054 -0.000109
v 2.866909 0.996054 0.007891
v 2.866909 0.870399 -0.000109
v 2.742917 0.870399 -0.000109
v 1.369609 0.248414 0.007890
v 0.749750 0.621485 0.007891
vt 0.000000 0.000000
vt 0.000000 0.751300
vt 0.083900 0.581900
vt 1.999800 0.751300
vt 1.999800 0.000000
vt 1.992100 0.000000
vt 1.992100 0.751300
vt 0.416600 0.751300
vt 1.999800 0.744100
vt 0.416600 0.744100
vt 0.009100 0.000000
vt 0.009100 0.751300
vt 1.415800 0.000000
vt 1.999800 0.000000
vt 1.999800 0.000000
vt 1.415800 0.000000
vt 0.000000 0.000000
vt 0.009100 0.000000
vt 1.999800 0.000000
vt 1.992100 0.000000
vt 1.750200 0.248600
vt 1.666200 0.248600
vt 1.666200 0.332300
vt 1.666200 0.581900
vt 1.750200 0.581900
vt 1.498800 0.581900
vt 1.415800 0.581900
vt 1.666200 0.666200
vt 1.583300 0.332300
vt 1.415800 0.082000
vt 1.583300 0.248600
vt 1.750200 0.164900
vt 1.332200 0.000000
vt 1.332200 0.000000
vt 1.415800 0.415000
vt 1.332200 0.415000
vt 1.332200 0.332300
vt 1.415800 0.332300
vt 1.332200 0.082000
vt 1.001400 0.000000
vt 1.001400 0.000000
vt 1.251100 0.415000
vt 1.251100 0.332300
vt 1.001400 0.082000
vt 1.084500 0.082000
vt 0.917800 0.581900
vt 1.001400 0.581900
vt 1.001400 0.164900
vt 0.666700 0.415000
vt 0.499000 0.082000
vt 0.499000 0.248600
vt 0.917800 0.666200
vt 0.666700 0.581900
vt 0.416600 0.581900
vt 0.583000 0.581900
vt 0.583000 0.415000
vt 0.416600 0.415000
vt 0.416600 0.666200
vt 0.334500 0.581900
vt 0.334500 0.415000
vt 0.166800 0.581900
vt 0.000000 0.751300
vt 0.251000 0.751300
vt 0.251000 0.744100
vt 0.000000 0.744100
vt 0.251000 0.751300
vt 0.251000 0.666200
vt 0.166800 0.666200
vt 1.832600 0.248600
vt 1.832600 0.248600
vt 1.750200 0.248600
vt 1.750200 0.164900
vt 1.832600 0.164900
vt 1.832600 0.164900
vt 1.750200 0.666200
vt 1.750200 0.666200
vt 1.666200 0.666200
vt 1.666200 0.581900
vt 1.750200 0.581900
vt 1.415800 0.082000
vt 1.332200 0.082000
vt 1.332200 0.000000
vt 1.415800 0.000000
vt 1.251100 0.415000
vt 1.167300 0.415000
vt 1.167300 0.415000
vt 1.167300 0.332300
vt 1.167300 0.332300
vt 1.251100 0.332300
vt 1.001400 0.666200
vt 1.001400 0.666200
vt 0.917800 0.666200
vt 0.917800 0.581900
vt 1.001400 0.581900
vt 0.666700 0.581900
vt 0.583000 0.581900
vt 0.583000 0.415000
vt 0.666700 0.415000
vt 0.499000 0.248600
vt 0.334500 0.248600
vt 0.334500 0.248600
vt 0.334500 0.164900
vt 0.334500 0.164900
vt 0.251000 0.164900
vt 0.251000 0.164900
vt 0.251000 0.082000
vt 0.251000 0.082000
vt 0.499000 0.082000
vt 0.251000 0.666200
vt 0.416600 0.666200
vt 0.416600 0.751300
vt 0.166800 0.666200
vt 0.083900 0.666200
vt 0.083900 0.666200
vt 0.083900 0.581900
vt 0.166800 0.581900
vt 1.084500 0.164900
vt 1.999800 0.751300
vt 1.498800 0.415000
vn 0.0000 -0.0000 1.0000
vn -1.0000 0.0000 0.0000
vn 0.0000 1.0000 0.0000
vn 1.0000 -0.0000 0.0000
vn 0.0000 -1.0000 0.0000
g Tile02.001_Tile02.001_Material__7.007
usemtl Material__7.007
s 1
f 81/81/7 82/82/7 83/83/7
f 84/84/8 85/85/8 86/86/8 87/87/8
f 88/88/9 84/84/9 87/89/9 89/90/9
f 90/91/10 91/92/10 82/82/10 81/81/10
f 92/93/7 86/94/7 93/95/7 94/96/7
f 81/81/10 95/97/10 96/98/10 90/91/10
f 85/85/8 97/99/8 93/100/8 86/86/8
f 98/101/7 99/102/7 100/103/7 101/104/7
f 98/101/7 101/104/7 102/105/7
f 103/106/7 104/107/7 105/108/7 101/104/7
f 101/104/7 100/103/7 106/109/7
f 92/93/7 107/110/7 108/111/7 109/112/7
f 108/111/7 99/102/7 109/112/7
f 92/93/7 109/112/7 86/94/7
f 110/113/7 92/93/7 94/96/7 111/114/7
f 104/107/7 112/115/7 113/116/7
f 114/117/7 115/118/7 107/110/7 116/119/7
f 117/120/7 110/113/7 111/114/7 118/121/7
f 119/122/7 113/116/7 114/117/7 120/123/7
f 114/117/7 116/119/7 120/123/7
f 117/120/7 121/124/7 122/125/7
f 81/81/7 117/120/7 118/121/7 95/97/7
f 123/126/7 124/127/7 125/128/7 126/129/7
f 125/128/7 121/124/7 127/130/7 128/131/7
f 129/132/7 123/126/7 130/133/7
f 131/134/7 132/135/7 133/136/7 134/137/7
f 135/138/7 131/134/7 136/139/7
f 136/139/7 137/140/7 138/141/7
f 91/142/9 139/143/9 140/144/9 82/145/9
f 140/146/7 141/147/7 142/148/7
f 143/149/11 144/150/11 145/151/11 98/101/11
f 98/101/8 145/151/8 146/152/8 109/112/8
f 109/112/9 146/152/9 147/153/9 148/154/9
f 148/154/10 147/153/10 144/150/10 143/149/10
f 149/155/11 150/156/11 151/157/11 105/108/11
f 105/108/8 151/157/8 152/158/8 101/104/8
f 101/104/9 152/158/9 153/159/9 102/105/9
f 102/105/10 153/159/10 150/156/10 149/155/10
f 107/110/11 154/160/11 155/161/11 116/119/11
f 116/119/8 155/161/8 156/162/8 110/113/8
f 110/113/9 156/162/9 157/163/9 92/93/9
f 92/93/10 157/163/10 154/160/10 107/110/10
f 119/122/11 158/164/11 159/165/11 160/166/11
f 160/166/8 159/165/8 161/167/8 162/168/8
f 162/168/9 161/167/9 163/169/9 120/123/9
f 120/123/10 163/169/10 158/164/10 119/122/10
f 164/170/11 165/171/11 166/172/11 129/132/11
f 129/132/8 166/172/8 167/173/8 123/126/8
f 123/126/9 167/173/9 168/174/9 124/127/9
f 124/127/10 168/174/10 165/171/10 164/170/10
f 130/133/11 169/175/11 170/176/11 132/135/11
f 132/135/8 170/176/8 171/177/8 133/136/8
f 133/136/9 171/177/9 172/178/9 126/129/9
f 126/129/10 172/178/10 169/175/10 130/133/10
f 128/131/11 173/179/11 174/180/11 175/181/11
f 175/181/8 174/180/8 176/182/8 177/183/8
f 177/183/11 176/182/11 178/184/11 179/185/11
f 179/185/8 178/184/8 180/186/8 181/187/8
f 181/187/9 180/186/9 182/188/9 127/130/9
f 127/130/10 182/188/10 173/179/10 128/131/10
f 140/146/8 139/143/8 183/189/8 141/147/8
f 141/147/9 183/189/9 184/190/9 135/138/9
f 135/138/10 184/190/10 88/88/10 89/191/10
f 142/148/11 185/192/11 186/193/11 187/194/11
f 187/194/8 186/193/8 188/195/8 83/83/8
f 83/83/9 188/195/9 189/196/9 138/141/9
f 138/141/10 189/196/10 185/192/10 142/148/10
f 140/146/7 142/148/7 187/194/7 82/82/7
f 83/83/7 82/82/7 187/194/7
f 141/147/7 136/139/7 138/141/7
f 141/147/7 138/141/7 142/148/7
f 89/191/7 132/135/7 135/138/7
f 89/191/7 130/133/7 132/135/7
f 135/138/7 132/135/7 131/134/7
f 89/191/7 129/132/7 130/133/7
f 138/141/7 137/140/7 83/83/7
f 135/138/7 136/139/7 141/147/7
f 81/81/7 181/187/7 127/130/7
f 81/81/7 179/185/7 181/187/7
f 179/185/7 175/181/7 177/183/7
f 81/81/7 175/181/7 179/185/7
f 175/181/7 81/81/7 83/83/7 137/140/7
f 137/140/7 134/137/7 128/131/7 175/181/7
f 133/136/7 128/131/7 134/137/7
f 123/126/7 126/129/7 130/133/7
f 81/81/7 127/130/7 117/120/7
f 117/120/7 127/130/7 121/124/7
f 162/168/7 190/197/7 125/128/7 160/166/7
f 160/166/7 125/128/7 124/127/7
f 117/120/7 122/125/7 116/119/7 110/113/7
f 120/123/7 190/197/7 162/168/7
f 190/197/7 116/119/7 122/125/7
f 120/123/7 116/119/7 190/197/7
f 104/107/7 119/122/7 160/166/7 124/127/7
f 104/107/7 113/116/7 119/122/7
f 164/170/7 104/107/7 124/127/7
f 105/108/7 104/107/7 164/170/7
f 87/198/7 149/155/7 105/108/7
f 87/198/7 102/105/7 149/155/7
f 102/105/7 87/198/7 143/149/7 98/101/7
f 87/198/7 105/108/7 164/170/7
f 89/191/7 87/198/7 164/170/7 129/132/7
f 112/115/7 191/199/7 106/109/7 115/118/7
f 101/104/7 191/199/7 103/106/7
f 101/104/7 106/109/7 191/199/7
f 108/111/7 115/118/7 106/109/7
f 108/111/7 107/110/7 115/118/7
f 109/112/7 99/102/7 98/101/7
f 86/94/7 148/154/7 143/149/7 87/198/7
f 86/94/7 109/112/7 148/154/7
f 126/129/7 125/128/7 128/131/7
f 126/129/7 128/131/7 133/136/7
